<svg xmlns="http://www.w3.org/2000/svg" viewBox="0 0 256 256" enable-background="new 0 0 256 256"><style type="text/css">.st0{fill:#BC9D6D;}</style><path class="st0" d="M43.2 249.7c3 .3 5.7-1.8 6.2-4.7-.3 3.2 2.1 6 5.3 6.3 3.2.3 6-2.1 6.3-5.3.3-3.4 1.1-12.1 1.5-15.3h.2c20.7 1.7 44.1-13.7 48.7-46.5 2-14.2-1.6-28.3-10.3-39.7-5.9-7.8-13.6-13.6-22.3-17.2.6-1.3 1.1-2.6 1.3-4.1.5-3.7-.4-7.5-2.7-10.5-2.3-3-5.6-5-9.3-5.5-7-1-13.7 3.4-15.6 10.1-.2.6-.3 1.3-.4 1.9-.2 1.5-.1 2.9.1 4.3-1.5.2-3 .4-4.5.7l-3.7-10.1c3.7-2.6 6.6-6.4 7.9-11 .6-2.2.9-4.6.7-6.9l-1.6-25.6c-.2-2.4-.7-4.7-1.7-6.8l13.8-11.3c.3.2.6.4 1 .5 4.9 2.4 10.4 2.8 15.5 1l24.4-8.3c6.3-2.1 11.2-7.3 13-13.7v-.1l12.1-.2c2 4.9 5.9 9.1 11.1 11.2l23.8 9.8c4.9 2 10.4 2 15.3.1l5.4 6.8c-1.1 1.7-2 3.6-2.6 5.6-.8 2.7-1 5.5-.6 8.3l3.5 25.5c1 7.6 6.2 13.7 13 16.2l-.3 8.5c-17.9.6-35.1 10-44.7 26.6-3.1 5.3-5.3 10.5-6.7 15.5-6.4 22.4 2.1 41.8 16.3 51.2.1 0 .1.1.2.2-1.7 2.7-6.3 10.2-8.2 13.1-1.7 2.7-.9 6.3 1.8 8 2.7 1.7 6.3.9 8-1.8-.2.4-.4.7-.5 1.1-.7 2.4.3 5.1 2.5 6.5 2.7 1.7 6.3.9 8-1.8.7-1.1 6.4-10.2 8.4-13.4.1 0 .2 0 .2.1 18.6 9.4 46 3.9 62.7-24.8 12.5-21.6 8.2-48.3-8.7-65 1.1-1 2-2 2.8-3.4.6-1 1-2.1 1.4-3.2 1.8-6.2-.9-12.9-6.5-16.1-6.8-3.9-15.4-1.6-19.4 5.1-.6 1-1 2.1-1.4 3.2l-.2.9c-1.5-.4-3-.8-4.5-1l.3-8.6c7.2-1.6 13.1-7 15.1-14.2.8-2.7 1-5.5.6-8.3l-3.4-25.6c-1.5-11.1-11.8-18.9-22.9-17.4-1.9.3-3.6.8-5.3 1.5l-5.2-6.6c.8-1.2 1.5-2.5 2.1-3.9 4.3-10.5-.8-22.3-11.1-26.5l-23.8-9.8c-5-2.1-10.5-2.1-15.6 0-5 2.1-8.9 6-11 11l-.8 2.2c-.1.5-.2 1-.4 1.5l-11.3.2-.1-.4c-1.7-5.1-5.4-9.3-10.3-11.7-4.9-2.4-10.4-2.8-15.5-1l-24.4 8.3c-6.3 2.1-11.2 7.3-13 13.7-1.1 4-1 8.2.3 12.1.3 1 .7 1.9 1.2 2.8l-12.9 10.9c-3.7-2.4-8-3.5-12.4-3.3-8.6.6-15.9 6.5-18.2 14.7-.6 2.2-.9 4.6-.7 6.9l1.6 25.8c.7 11 10 19.3 20.9 19l3.6 9.9c-14.2 6.3-25.4 18.7-29.9 34.3-.7 2.3-1.2 4.8-1.5 7.2-4.6 32.8 13.6 54.1 34 58.2.1 0 .2 0 .3.1-.5 3.8-1.4 14.5-1.5 15.8-.4 3.1 2 5.9 5.2 6.2zm192.5-51.4c-9.8 17-29.3 29.4-47.4 20.2-5.5-2.8-12.1-1.2-15 3.5 2.7-4.9.8-11.3-4.4-14.8-16.9-11.2-15.8-34.2-5.9-51.2 11.6-20 37.4-26.9 57.4-15.2s26.9 37.5 15.3 57.5zm-10.4-70.9c.7-1.2 2.3-1.6 3.5-.9 1 .6 1.5 1.8 1.2 2.9l-.2.6c-.7 1.2-2.2 1.6-3.5.9-1.2-.7-1.7-2.3-1-3.5zm-15-57.9l3.5 25.5c.2 1.2.1 2.4-.2 3.6-.6 2-1.8 3.7-3.5 4.8l.3-8.2c.1-3.2-2.4-5.9-5.6-6-2.7-.1-5.1 1.7-5.8 4.2-.1.4-.2.9-.2 1.4l-.2 6.9c-1-1.2-1.7-2.7-1.9-4.3l-3.7-25.5c-.1-.6-.1-1.2-.1-1.8l4 5.1c2 2.5 5.6 3 8.2 1 2.5-2 3-5.6 1-8.2l-4.7-5.9c4.4-.1 8.2 3 8.9 7.4zm-65.7-53.4c2.1-.9 4.5-.9 6.7 0l23.8 9.8c3.8 1.5 5.9 5.4 5.3 9.4l-2.8-3.6c-2-2.5-5.6-3-8.2-1-1 .8-1.7 1.8-2 3-.5 1.7-.2 3.7 1 5.2l2.9 3.7c-1-.1-1.9-.2-2.9-.6l-23.8-9.8c-.5-.2-1-.5-1.5-.8l4.4-.1c3.2-.1 5.8-2.7 5.7-5.9-.1-3.2-2.7-5.8-5.9-5.7l-6.9.1c1-1.6 2.4-3 4.2-3.7zm-74.4 10.4l24.4-8.3c2.2-.7 4.6-.6 6.6.4 1 .5 1.8 1.1 2.5 1.9l-4.6.1c-2.6.1-4.8 1.8-5.5 4.2-.2.5-.2 1.1-.2 1.7.1 3.2 2.7 5.8 5.9 5.7l4.5-.1c-1 1.1-2.2 2-3.7 2.5l-24.3 8.4c-.6.2-1.1.3-1.7.4l4.2-3.5c2.5-2 2.8-5.7.8-8.2-2-2.5-5.7-2.8-8.2-.8l-6.4 5.3c-.6-4 1.8-8.3 5.7-9.7zm-46.5 71.7l-1.7-25.7c-.3-4.7 3.5-8.9 8.1-9.2h1.4l-3.9 3.2c-.9.8-1.6 1.8-1.9 2.9-.5 1.8-.2 3.8 1.1 5.3 2 2.5 5.7 2.8 8.2.8l4.4-3.6 1.6 25.1c.1 1 0 2-.3 2.9-.2.8-.6 1.6-1.1 2.3l-2.1-5.7c-1.1-3-4.4-4.6-7.5-3.5-1.8.7-3.1 2.1-3.6 3.9-.3 1.1-.3 2.4.1 3.6l1.7 4.6c-2.4-1.1-4.3-3.7-4.5-6.9zm40.5 24.5c-.2-.3-.6-1-.5-1.9.2-1.4 1.5-2.3 2.9-2.1.9.1 1.4.7 1.7 1 .2.3.6 1 .5 1.9 0 .1 0 .2-.1.4-.3 1.2-1.5 2-2.8 1.8-.9-.2-1.5-.8-1.7-1.1zm-47.4 48.2c3.2-22.9 24.5-39 47.5-35.7 11.1 1.6 20.9 7.4 27.7 16.3 6.7 9 9.6 20 8 31.1-3.6 25.7-21 37.8-36.3 36.6-6.2-.5-11.6 3.4-12.5 8.9.6-5.5-3.5-10.8-9.6-12-19.9-4-27.6-25.7-24.8-45.2z" id="Your_Icon_2_"/></svg>