<svg xmlns="http://www.w3.org/2000/svg" viewBox="0 0 256 256" enable-background="new 0 0 256 256"><style type="text/css">.st0{fill:#BC9D6D;}</style><path class="st0" d="M191.9 124.3c11.9-3.6 24.3-8.4 36.1-14.9 19-11.1 28.7.4 21.7 17.8-6 16.4-38 47-65.9 54-10.7-7.5-31.6-12.7-55.8-12.8-24.2.1-45.2 5.3-55.8 12.8-27.9-7-59.9-37.6-65.9-54-7-17.4 2.7-28.9 21.7-17.8 11.9 6.5 24.2 11.3 36.1 14.9 25.5 7.7 48.9 9.6 61.2 9.6h6.7c12.3-.1 35.1-2.1 59.9-9.6z"/><path class="st0" d="M157.5 47c9.9 5 26.1 51.7 32.4 70.9-24 7-45.9 8.9-57.8 9h-6.7c-11.9 0-34.4-1.8-59.1-9 6.1-19.1 22.3-65.9 32.2-70.9 11.4-5.7 21.2 3.7 29.1 4.7h-1.5c.6.1 1.3.1 1.9 0 .7.1 1.3 0 1.9 0h-1.5c7.9-.9 17.6-10.4 29.1-4.7zm-3.9 36.3c0-2.1-1.7-3.8-3.8-3.8-1.9 0-3.5 1.4-3.7 3.3l-11.6-1.7-5.1-10.3c1.4-.6 2.3-1.9 2.3-3.5 0-2.1-1.7-3.8-3.8-3.8-2.1 0-3.8 1.7-3.8 3.8 0 1.6 1 2.9 2.4 3.5l-5.1 10.3-11.6 1.7c-.2-1.8-1.8-3.3-3.7-3.3-2.1 0-3.8 1.7-3.8 3.8 0 2.1 1.7 3.8 3.8 3.8 1.3 0 2.4-.6 3.1-1.6l8.2 8-2.1 12.1c-.5-.2-1-.3-1.5-.3-2.1 0-3.8 1.7-3.8 3.8 0 2.1 1.7 3.8 3.8 3.8 2.1 0 3.8-1.7 3.8-3.8 0-.8-.2-1.5-.7-2.1l11-5.8 10.9 5.8c-.4.6-.7 1.3-.7 2.1 0 2.1 1.7 3.8 3.8 3.8 2.1 0 3.8-1.7 3.8-3.8s-1.7-3.8-3.8-3.8c-.5 0-1 .1-1.5.3l-2.1-12.1 8.2-8c.7 1 1.8 1.6 3.1 1.6 2.3 0 4-1.7 4-3.8z" id="XMLID_1_"/></svg>