<svg xmlns="http://www.w3.org/2000/svg" viewBox="0 0 256 256" enable-background="new 0 0 256 256"><style type="text/css">.st0{fill:#87714F;}</style><path class="st0" d="M227.4 175.3c-1.7 0-3.3.6-4.7 1.4l-29.1-49.1 29.1-49.1c1.4.8 2.9 1.4 4.7 1.4 5.1 0 9.3-4.2 9.3-9.3 0-5.1-4.2-9.3-9.3-9.3-5.1 0-9.3 4.1-9.3 9.3v.1l-57 .7-27.9-49.8c2.8-1.6 4.8-4.5 4.8-8 0-5.1-4.1-9.3-9.3-9.3-5.1 0-9.3 4.2-9.3 9.3 0 3.5 2 6.4 4.8 8l-27.7 50-57-.7v-.1c0-5.1-4.2-9.3-9.3-9.3-5.1 0-9.3 4.1-9.3 9.3 0 5.1 4.1 9.3 9.3 9.3 1.7 0 3.3-.6 4.7-1.4l29.1 49.1-29.1 49.1c-1.4-.8-2.9-1.4-4.7-1.4-5.1 0-9.3 4.2-9.3 9.3 0 5.1 4.1 9.3 9.3 9.3 5.1 0 9.3-4.2 9.3-9.3v-.1l57-.7 27.9 49.8c-2.8 1.6-4.8 4.5-4.8 8 0 5.1 4.2 9.3 9.3 9.3 5.1 0 9.3-4.2 9.3-9.3 0-3.5-2-6.4-4.8-8l27.9-49.8 57 .7v.1c0 5.1 4.1 9.3 9.3 9.3 5.1 0 9.3-4.2 9.3-9.3-.2-5.3-4.4-9.5-9.5-9.5z" id="Your_Icon"/></svg>